<svg width="54" height="46" viewBox="0 0 54 46" fill="none" xmlns="http://www.w3.org/2000/svg">
<path d="M14.8846 26.2857C17.6538 26.2857 19.8462 27.208 21.4615 29.0526C23.1923 30.782 24.0577 33.0877 24.0577 35.9699C24.0577 39.0827 23.0192 41.5614 20.9423 43.406C18.9808 45.1353 16.2692 46 12.8077 46C8.76923 46 5.59615 44.4436 3.28846 41.3308C1.09615 38.218 0 33.7794 0 28.015C0 22.8271 1.15385 18.0426 3.46154 13.6617C5.76923 9.16541 9.23077 4.66917 13.8462 0.172932C13.9615 0.0576454 14.1346 0 14.3654 0C14.7115 0 15 0.172932 15.2308 0.518792C15.4615 0.864659 15.4615 1.15288 15.2308 1.38345C9.57693 7.14787 6.75 13.9499 6.75 21.7895C6.75 25.0175 7.32692 27.381 8.48077 28.8797C9.51923 27.1504 11.6538 26.2857 14.8846 26.2857ZM44.8269 26.2857C47.5962 26.2857 49.7885 27.208 51.4039 29.0526C53.1346 30.782 54 33.0877 54 35.9699C54 39.0827 52.9615 41.5614 50.8846 43.406C48.9231 45.1353 46.2115 46 42.75 46C38.7115 46 35.5385 44.4436 33.2308 41.3308C31.0385 38.218 29.9423 33.7794 29.9423 28.015C29.9423 22.8271 31.0962 18.0426 33.4039 13.6617C35.7115 9.16541 39.1731 4.66917 43.7885 0.172932C43.9038 0.0576454 44.0769 0 44.3077 0C44.6538 0 44.9423 0.172932 45.1731 0.518792C45.4038 0.864659 45.4038 1.15288 45.1731 1.38345C39.5192 7.14787 36.6923 13.9499 36.6923 21.7895C36.6923 25.0175 37.2692 27.381 38.4231 28.8797C39.4615 27.1504 41.5962 26.2857 44.8269 26.2857Z" fill="#651127"/>
</svg>
