<svg width="24" height="24" viewBox="0 0 24 24" fill="none" xmlns="http://www.w3.org/2000/svg">
<g clip-path="url(#clip0_116_547)">
<path fill-rule="evenodd" clip-rule="evenodd" d="M11.6 23.7593L9.68029 23.3678C4.39228 22.2893 0.400024 17.6177 0.400024 12C0.400024 5.59637 5.59637 0.400024 12 0.400024C18.4037 0.400024 23.6 5.59637 23.6 12C23.6 18.0212 19.0177 22.962 13.1577 23.5422L11.6 23.6965V23.7593ZM11.9572 8.39328C12.0781 8.22549 12.2255 8.07805 12.3933 7.95724C12.2313 8.08489 12.0849 8.23134 11.9572 8.39328ZM8.40002 21.3311C4.65885 19.8842 2.00002 16.2551 2.00002 12C2.00002 6.48002 6.48002 2.00002 12 2.00002C17.52 2.00002 22 6.48002 22 12C22 16.6274 18.86 20.5154 14.6 21.6584C14.082 21.7974 13.5475 21.8958 13 21.95V15H16V12H13V10C13 9.45002 13.45 9.00002 14 9.00002H16V6.00002H13.5C11.57 6.00002 10 7.57002 10 9.50002V12H8.00002V15H10V21.8C9.44897 21.6876 8.91427 21.53 8.40002 21.3311Z" fill="white"/>
</g>
<defs>
<clipPath id="clip0_116_547">
<rect width="24" height="24" fill="white"/>
</clipPath>
</defs>
</svg>
