<svg width="24" height="24" viewBox="0 0 24 24" fill="none" xmlns="http://www.w3.org/2000/svg">
<path d="M17 7V7.05M11 21H13C16.7712 21 18.6569 21 19.8284 19.8284C21 18.6569 21 16.7712 21 13V11C21 7.22876 21 5.34315 19.8284 4.17157C18.6569 3 16.7712 3 13 3H11C7.22876 3 5.34315 3 4.17157 4.17157C3 5.34315 3 7.22876 3 11V13C3 16.7712 3 18.6569 4.17157 19.8284C5.34315 21 7.22876 21 11 21ZM16 12C16 14.2091 14.2091 16 12 16C9.79086 16 8 14.2091 8 12C8 9.79086 9.79086 8 12 8C14.2091 8 16 9.79086 16 12Z" stroke="white" stroke-width="1.6" stroke-linecap="round"/>
</svg>
