<svg width="381" height="519" viewBox="0 0 381 519" fill="none" xmlns="http://www.w3.org/2000/svg">
<g opacity="0.3">
<path d="M357.204 83.481C352.052 77.6536 345.951 72.2328 338.63 67.354C331.309 62.4753 322.904 58.2741 313.278 54.8861C303.652 51.4981 297.009 49.3297 285.214 48.5166C285.757 46.3482 305.144 2.30386 304.33 0.813128C304.059 0.406564 303.652 0.135521 302.839 0C302.161 0 301.348 -5.04856e-07 300.67 0.542084C298.094 2.03282 294.027 8.53784 288.468 19.7861C286.706 23.1741 278.978 39.5722 279.385 39.5722C278.3 42.1471 276.944 45.1286 275.995 47.7035C275.046 47.7035 263.523 48.5166 263.387 48.6521C250.643 49.4652 237.764 51.6336 222.851 55.8347C207.938 60.0359 191.805 66.6764 174.451 75.7563C152.353 87.4112 131.746 101.776 112.495 118.852C93.2434 135.928 76.2968 154.901 61.2482 175.5C46.3352 196.099 33.8625 218.054 23.8302 241.363C13.7978 264.673 6.88357 288.254 3.08754 312.376C-0.708501 336.499 -0.979655 360.351 2.13852 384.067C5.25669 407.783 12.4421 430.415 23.8302 451.963C32.5068 468.497 42.8104 481.913 54.4696 492.213C66.1289 502.513 78.8727 509.695 92.43 514.032C105.987 518.369 120.087 519.588 134.729 517.826C149.371 516.065 163.877 511.457 178.248 503.868C193.025 496.143 205.904 486.657 216.75 475.544C227.596 464.431 236.815 452.234 244.136 439.089C251.592 425.808 257.558 411.578 262.031 396.264C262.031 396.264 262.031 396.264 262.031 396.128C274.233 361.028 280.605 320.779 281.283 275.244C281.283 267.383 281.283 258.439 281.283 248.546C294.162 244.616 305.55 241.499 317.752 235.129C329.953 228.76 340.935 220.764 350.56 211.413C360.186 202.062 368.185 191.085 373.201 179.566C378.353 167.911 380.793 155.443 380.658 142.162C380.522 128.745 376.726 115.057 369.134 100.692C366.151 95.0004 362.084 89.3085 356.932 83.481H357.204ZM253.219 127.525C253.219 127.525 253.084 127.661 252.948 127.796C252.948 127.796 252.948 128.068 252.948 128.203C252.677 129.423 252.541 130.642 252.27 131.998C247.525 161.948 245.627 200.978 246.576 250.579C243.865 250.443 242.102 250.308 239.255 249.494C235.73 248.546 233.154 246.378 231.528 244.209C229.765 242.041 229.358 240.008 230.036 238.111C230.307 237.298 231.256 236.078 232.612 234.587C233.968 232.961 234.917 231.741 235.188 230.928C236.002 228.76 236.002 226.727 235.053 224.559C234.104 222.39 232.612 221.035 230.579 220.222C228.274 219.273 225.834 219.544 223.529 220.9C221.089 222.255 219.326 224.423 218.241 227.269C216.479 231.741 217.157 236.213 220.275 240.55C223.258 245.022 227.596 248.275 234.781 250.985C238.442 252.34 242.102 252.747 246.576 253.154C246.576 256.135 246.576 260.065 246.712 263.182C247.118 278.361 246.712 335.144 246.576 341.784C245.627 365.772 242.509 387.591 237.357 407.106C232.205 426.621 224.207 443.967 213.632 458.875C202.922 473.782 188.415 486.386 170.113 496.55C158.318 503.055 146.388 507.256 134.186 508.882C122.12 510.508 110.597 509.966 99.6153 507.12C88.6339 504.41 78.6016 499.531 69.247 492.619C60.0281 485.708 52.436 477.035 46.3352 466.464C40.0989 455.622 35.4894 443.154 32.3713 429.06C29.2531 414.966 27.4906 399.923 27.3551 383.796C27.2195 367.669 28.4396 350.864 31.2867 333.247C34.1337 315.764 38.3364 298.011 44.1661 280.258C49.8601 262.505 57.0455 244.887 65.7221 227.676C74.3988 210.464 84.5668 194.066 96.0904 178.481C107.614 162.896 120.629 148.531 135.135 135.25C149.642 121.969 165.639 110.585 182.993 100.828C195.736 93.7807 208.209 88.2243 220.275 83.481C241.289 75.0787 261.354 70.8776 267.048 70.8776C260.947 89.1729 256.202 108.146 252.813 127.525H253.219ZM352.459 183.902C348.527 195.015 342.291 203.282 334.156 212.497C326.022 221.713 316.396 230.115 304.872 236.078C300.399 238.382 295.789 240.55 291.18 242.447C288.061 243.803 284.943 244.887 281.825 246.106C281.554 228.353 280.469 202.198 279.52 178.617C277.351 130.913 278.029 94.0517 281.554 68.3027C283.181 68.3027 302.839 68.3027 319.65 78.6023C330.089 85.1073 339.037 94.1872 345.951 107.062C352.458 119.394 356.119 131.591 356.932 143.924C357.746 156.256 356.39 172.79 352.459 183.902Z" fill="#5C0E22"/>
</g>
</svg>
