<svg width="29" height="40" viewBox="0 0 29 40" fill="none" xmlns="http://www.w3.org/2000/svg">
<path d="M27.2128 6.43891C26.8203 5.98944 26.3555 5.57133 25.7978 5.19503C25.2401 4.81873 24.5997 4.49469 23.8664 4.23337C23.1331 3.97205 22.627 3.80481 21.7285 3.74209C21.7698 3.57485 23.2467 0.177697 23.1847 0.0627167C23.1641 0.0313584 23.1331 0.0104528 23.0711 0C23.0195 0 22.9575 -3.89396e-08 22.9059 0.0418111C22.7096 0.156792 22.3998 0.658525 21.9763 1.5261C21.8421 1.78742 21.2534 3.05221 21.2843 3.05221C21.2017 3.25081 21.0984 3.48077 21.0261 3.67938C20.9538 3.67938 20.0759 3.74209 20.0656 3.75255C19.0947 3.81526 18.1135 3.98251 16.9774 4.30654C15.8413 4.63058 14.6122 5.14276 13.2902 5.8431C11.6067 6.74204 10.0368 7.85003 8.57017 9.16708C7.10355 10.4841 5.81251 11.9475 4.66607 13.5363C3.52995 15.1252 2.57975 16.8185 1.81545 18.6164C1.05115 20.4143 0.52441 22.233 0.235217 24.0936C-0.0539756 25.9542 -0.0746329 27.7939 0.162918 29.6232C0.40047 31.4524 0.947871 33.198 1.81545 34.86C2.47646 36.1352 3.26142 37.1701 4.14965 37.9645C5.03789 38.7589 6.00875 39.3129 7.04158 39.6474C8.07441 39.9819 9.14856 40.0759 10.264 39.94C11.3795 39.8042 12.4846 39.4488 13.5794 38.8634C14.7052 38.2676 15.6864 37.5359 16.5127 36.6788C17.3389 35.8217 18.0412 34.8809 18.599 33.867C19.167 32.8426 19.6215 31.7451 19.9623 30.5639C19.9623 30.5639 19.9623 30.5639 19.9623 30.5535C20.8919 27.8462 21.3773 24.7417 21.4289 21.2296C21.4289 20.6233 21.4289 19.9334 21.4289 19.1704C22.4101 18.8673 23.2777 18.6268 24.2073 18.1356C25.1368 17.6443 25.9734 17.0276 26.7067 16.3063C27.44 15.5851 28.0494 14.7384 28.4315 13.8499C28.824 12.951 29.0099 11.9893 28.9996 10.965C28.9893 9.93013 28.7001 8.8744 28.1217 7.76641C27.8945 7.32739 27.5846 6.88838 27.1921 6.43891H27.2128ZM19.291 9.83606C19.291 9.83606 19.2806 9.84651 19.2703 9.85697C19.2703 9.85697 19.2703 9.87787 19.2703 9.88832C19.2497 9.9824 19.2393 10.0765 19.2187 10.181C18.8572 12.4911 18.7126 15.5015 18.7849 19.3272C18.5783 19.3167 18.444 19.3063 18.2272 19.2436C17.9586 19.1704 17.7624 19.0031 17.6384 18.8359C17.5042 18.6687 17.4732 18.5119 17.5248 18.3655C17.5455 18.3028 17.6178 18.2087 17.7211 18.0938C17.8243 17.9683 17.8966 17.8742 17.9173 17.8115C17.9793 17.6443 17.9793 17.4875 17.907 17.3202C17.8347 17.153 17.7211 17.0485 17.5661 16.9858C17.3906 16.9126 17.2046 16.9335 17.0291 17.038C16.8432 17.1425 16.7089 17.3098 16.6263 17.5293C16.492 17.8742 16.5436 18.2192 16.7812 18.5537C17.0084 18.8986 17.3389 19.1495 17.8863 19.3585C18.1652 19.4631 18.444 19.4944 18.7849 19.5258C18.7849 19.7557 18.7849 20.0589 18.7952 20.2993C18.8262 21.47 18.7952 25.8497 18.7849 26.3619C18.7126 28.212 18.475 29.8949 18.0826 31.4001C17.6901 32.9053 17.0807 34.2433 16.2751 35.3931C15.4592 36.5429 14.354 37.515 12.9597 38.299C12.0611 38.8007 11.1523 39.1247 10.2227 39.2502C9.30348 39.3756 8.42558 39.3338 7.58898 39.1143C6.75239 38.9052 5.98809 38.5289 5.27544 37.9958C4.57311 37.4627 3.99473 36.7938 3.52995 35.9784C3.05485 35.1422 2.70369 34.1806 2.46613 33.0935C2.22858 32.0064 2.09432 30.8461 2.08399 29.6023C2.07366 28.3584 2.16661 27.0622 2.38351 25.7034C2.6004 24.355 2.92058 22.9856 3.3647 21.6163C3.79849 20.247 4.34589 18.8882 5.0069 17.5607C5.66791 16.2332 6.44254 14.9684 7.32045 13.7663C8.19835 12.5642 9.18987 11.4562 10.295 10.4319C11.4001 9.4075 12.6189 8.52946 13.9409 7.77686C14.9118 7.23332 15.862 6.80476 16.7812 6.43891C18.3821 5.79084 19.9107 5.4668 20.3445 5.4668C19.8797 6.87792 19.5182 8.34131 19.26 9.83606H19.291ZM26.8513 14.1844C26.5518 15.0415 26.0767 15.6792 25.457 16.3899C24.8373 17.1007 24.104 17.7488 23.2261 18.2087C22.8852 18.3864 22.5341 18.5537 22.1829 18.7C21.9453 18.8045 21.7078 18.8882 21.4702 18.9822C21.4496 17.6129 21.367 15.5955 21.2947 13.7768C21.1294 10.0974 21.1811 7.25422 21.4496 5.2682C21.5735 5.2682 23.0711 5.2682 24.3518 6.06261C25.1471 6.56434 25.8288 7.26468 26.3555 8.25769C26.8513 9.20889 27.1302 10.1496 27.1921 11.1008C27.2541 12.052 27.1508 13.3273 26.8513 14.1844Z" fill="#DDB53C"/>
</svg>
