<svg width="494" height="113" viewBox="0 0 494 113" fill="none" xmlns="http://www.w3.org/2000/svg">
<g clip-path="url(#clip0_80_24)">
<path d="M68.516 6.7062H13.3429C8.21966 6.7062 3.15275 3.60669 0.450392 0L0 0.394482C5.01062 7.15703 10.4153 9.8057 15.4822 9.8057C21.3373 9.8057 33.7231 7.43881 39.1278 7.43881H42.6184C46.3341 7.43881 46.6719 7.83329 46.6719 11.4963V57.369C46.6719 61.0884 46.2778 61.4265 42.6184 61.4265H39.916V62.1028H58.7762V61.4265H56.8621C53.1463 61.4265 52.6959 61.032 52.6959 57.369V13.356C52.6959 11.609 52.3018 9.8057 51.401 8.5659V8.17142H66.264C74.4837 8.17142 81.1833 15.7793 81.1833 25.1905C81.1833 35.3907 76.7356 42.2096 70.0923 42.2096C62.9423 42.2096 58.1569 38.4902 58.1569 32.9674C58.1569 30.2061 60.9156 27.9519 64.2935 27.9519C66.2077 27.9519 67.7841 26.4867 67.7841 24.627H66.264C61.0282 24.627 56.8058 28.3464 56.8058 32.9674C56.8058 39.3355 62.1542 43.6184 70.1486 43.6184C79.9447 43.6184 87.9391 35.3907 87.9391 25.1905C87.9391 14.0886 80.2262 6.7062 68.6286 6.7062H68.516Z" fill="white"/>
<path d="M142.211 56.6364L124.027 12.1163C123.633 11.2146 123.351 9.18582 123.351 7.66425V6.76257H117.383L95.7647 56.6927C94.5824 59.3414 93.4564 61.4829 91.5422 61.4829H90.3036V62.1591H104.322V61.4829H100.55C98.2418 61.4829 96.8343 60.2431 96.8343 58.4397C96.8343 57.8762 96.9469 57.3126 97.2284 56.6927L101.395 47.1125H131.909L136.187 57.6508C136.75 58.9469 137.595 60.863 138.552 61.2575V61.4265H132.641V62.1028H147.335V61.4265H146.715C144.182 61.4265 143.731 60.3558 142.155 56.6364H142.211ZM102.014 45.7036L116.032 13.5815C116.708 11.9472 116.933 10.9892 116.933 10.482H117.609C117.609 11.3273 117.665 12.3417 118.228 13.5815L131.289 45.7036H101.958H102.014Z" fill="white"/>
<path d="M202.001 59.3978C201.269 60.0177 200.537 60.2995 199.805 60.2995C197.328 60.2995 194.232 55.5093 192.261 52.3535L188.433 46.2672C186.744 43.5622 183.479 41.308 179.875 40.9698V40.519H181.396C190.629 39.3356 197.722 32.7984 197.722 23.7817C197.722 13.5252 189.503 6.6499 177.229 6.6499H157.131V7.32616H159.833C163.549 7.32616 163.887 7.72064 163.887 11.3837V57.2563C163.887 60.9757 163.492 61.3138 159.833 61.3138H157.131V61.9901H178.524V61.3138H174.077C170.361 61.3138 169.911 60.9194 169.911 57.2563V12.1727C169.911 10.4257 169.516 9.07315 168.616 8.17148L176.61 8.11512C184.548 8.11512 191.023 15.1594 191.023 23.8381C191.023 32.5167 184.548 39.6173 176.61 39.6173H173.063V40.9135H173.964C177.455 40.9135 179.031 42.9423 181.564 46.8307L186.969 55.1712C189.39 58.8906 192.092 62.8918 196.033 62.8918C197.835 62.8918 199.918 62.0465 202.395 59.905L204.084 58.4398L203.634 57.8762L201.945 59.3414L202.001 59.3978Z" fill="white"/>
<path d="M261.847 56.6364L243.662 12.1163C243.268 11.2146 242.987 9.18582 242.987 7.66425V6.76257H237.019L215.4 56.6927C214.218 59.3414 213.092 61.4829 211.178 61.4829H209.939V62.1591H223.958V61.4829H220.186C217.877 61.4829 216.47 60.2431 216.47 58.4397C216.47 57.8762 216.582 57.3126 216.864 56.6927L221.03 47.1125H251.544L255.823 57.6508C256.386 58.9469 257.23 60.863 258.187 61.2575V61.4265H252.276V62.1028H266.97V61.4265H266.351C263.817 61.4265 263.367 60.3558 261.791 56.6364H261.847ZM221.649 45.7036L235.668 13.5815C236.343 11.9472 236.569 10.9892 236.569 10.482H237.244C237.244 11.3273 237.3 12.3417 237.863 13.5815L250.925 45.7036H221.593H221.649Z" fill="white"/>
<path d="M296.921 6.70626H275.19V7.38251H277.892C281.608 7.38251 281.946 8.45325 281.946 12.1727V57.3127C281.946 61.0321 281.552 61.3702 277.892 61.3702H275.19V62.0465H296.921C314.993 62.0465 327.041 50.9446 327.041 34.32C327.041 17.6954 314.993 6.6499 296.921 6.6499V6.70626ZM294.894 60.7503H286.731C287.632 59.7359 288.026 58.8343 288.026 57.0309V11.7782C288.026 10.0312 287.632 9.07315 286.731 8.17148L294.894 8.11512C311.503 8.11512 320.454 17.3009 320.454 34.3764C320.454 51.4518 311.503 60.7503 294.894 60.7503Z" fill="white"/>
<path d="M338.582 7.38243H341.285C345.001 7.38243 345.338 7.6642 345.338 11.3836V57.3689C345.338 61.0884 344.944 61.3701 341.285 61.3701H338.582V62.0464H358.231V61.3701H355.529C351.813 61.3701 351.362 61.0884 351.362 57.3689V11.5527C351.362 7.83327 351.813 7.5515 355.529 7.5515H358.231V6.70618H338.582V7.38243Z" fill="white"/>
<path d="M387.957 30.2061C381.989 26.5994 376.415 23.2181 376.415 16.85C376.415 10.482 379.962 7.43882 386.211 7.43882C393.812 7.43882 397.471 13.4124 397.753 19.4987L397.922 22.7109H399.329L398.485 4.45203H397.696L397.922 8.50956C397.978 9.58029 398.091 10.4256 398.203 10.9892L397.64 11.1582C397.64 11.1582 396.965 9.74936 396.402 9.41123C394.037 7.66424 390.772 6.02995 386.155 6.02995C377.035 6.02995 371.011 11.0455 371.011 18.5407C371.011 27.501 377.992 31.8404 384.635 35.8415C390.659 39.4482 396.345 43.393 396.345 50.0992C396.345 56.8054 391.729 61.3702 384.804 61.3702C377.541 61.3702 371.349 55.4529 370.898 46.3798L370.729 43.224H369.322L370.335 64.3569H371.011L370.786 59.5105C370.786 58.6088 370.617 56.9745 370.504 56.1855H370.786C371.011 56.8054 372.193 58.2706 372.7 58.6651C376.641 61.4265 380.131 62.779 384.86 62.779C395.163 62.779 402.032 57.2563 402.032 48.9158C402.032 39.2228 394.713 34.3763 387.9 30.2624L387.957 30.2061Z" fill="white"/>
<path d="M477.81 59.0033C471.955 59.0033 459.569 61.3702 454.164 61.3702H450.674C448.028 61.3702 432.658 60.9757 428.267 60.863V60.7503H424.157C425.058 59.7359 425.846 58.3834 425.846 56.6928V33.8128H428.942C433.277 33.8128 437.275 34.6581 437.275 42.0406V46.2672H437.95V21.5275H437.275V24.2325C437.275 31.615 433.277 32.4039 428.942 32.4039H425.846V12.229C425.846 10.5383 425.058 9.12948 424.157 8.22781L435.023 8.17146C442.398 8.17146 446.395 11.0455 446.902 19.3297L447.183 24.7397H448.591L447.183 3.83215H446.508L446.733 7.43885H446.677C446.114 6.8753 445.044 6.76259 443.805 6.76259H413.066V7.43885H415.768C419.484 7.43885 419.822 7.83333 419.822 11.4964V57.369C419.822 61.0884 419.428 61.4265 415.768 61.4265H413.066V62.1028H428.211H479.949C485.016 62.1028 490.14 65.2023 492.786 68.809L493.236 68.4145C488.225 61.652 482.821 59.0033 477.754 59.0033H477.81Z" fill="white"/>
</g>
<path d="M225.905 112.394C224.9 112.394 223.894 112.319 222.888 112.168C221.883 112.018 220.952 111.827 220.097 111.596C219.241 111.353 218.53 111.099 217.964 110.833L218.415 107.331C219.039 107.631 219.79 107.943 220.669 108.267C221.559 108.591 222.518 108.862 223.547 109.082C224.576 109.302 225.616 109.411 226.668 109.411C228.229 109.411 229.466 109.128 230.379 108.562C231.304 107.984 231.766 107.088 231.766 105.874C231.766 104.961 231.535 104.215 231.073 103.637C230.61 103.048 229.911 102.545 228.975 102.129C228.05 101.713 226.888 101.297 225.489 100.88C224.16 100.487 222.935 100.025 221.813 99.4933C220.692 98.95 219.79 98.2275 219.108 97.3259C218.438 96.4126 218.103 95.2047 218.103 93.7019C218.103 92.4188 218.432 91.2859 219.091 90.3034C219.762 89.3092 220.738 88.5347 222.021 87.9799C223.316 87.425 224.9 87.1476 226.772 87.1476C228.368 87.1476 229.83 87.321 231.159 87.6678C232.5 88.0146 233.604 88.396 234.471 88.8122L234.124 92.3147C232.807 91.5287 231.547 90.968 230.344 90.6328C229.154 90.2976 227.917 90.13 226.634 90.13C225.212 90.13 224.033 90.3958 223.096 90.9276C222.172 91.4593 221.709 92.3263 221.709 93.5285C221.709 94.3377 221.917 95.0024 222.334 95.5226C222.75 96.0312 223.368 96.4704 224.189 96.8404C225.01 97.1987 226.033 97.5628 227.258 97.9327C228.946 98.4414 230.396 99.0251 231.61 99.684C232.824 100.331 233.754 101.135 234.402 102.094C235.049 103.042 235.373 104.221 235.373 105.631C235.373 106.672 235.176 107.608 234.783 108.44C234.39 109.273 233.801 109.984 233.015 110.573C232.229 111.163 231.24 111.614 230.05 111.926C228.871 112.238 227.489 112.394 225.905 112.394Z" fill="white"/>
<path d="M193.219 111.908V87.6331H201.091C202.779 87.6331 204.253 87.8931 205.513 88.4133C206.773 88.9335 207.75 89.7369 208.443 90.8235C209.137 91.9101 209.484 93.3088 209.484 95.0197C209.484 96.6843 209.119 98.0772 208.391 99.1985C207.675 100.32 206.628 101.204 205.253 101.851L210.697 111.908H206.675L201.75 102.441C201.716 102.441 201.687 102.441 201.663 102.441C201.64 102.441 201.611 102.441 201.577 102.441H196.687V111.908H193.219ZM196.687 99.4933H201.057C202.71 99.4933 203.952 99.0945 204.785 98.2968C205.628 97.4992 206.05 96.4068 206.05 95.0197C206.05 93.6094 205.628 92.517 204.785 91.7425C203.952 90.968 202.71 90.5808 201.057 90.5808H196.687V99.4933Z" fill="white"/>
<path d="M169.162 111.908V87.6331H183.97V90.6154H172.457V97.7246H181.612V100.707H172.457V108.926H184.282V111.908H169.162Z" fill="white"/>
<path d="M143.412 111.908V87.6331H151.284C152.971 87.6331 154.445 87.8931 155.705 88.4133C156.965 88.9335 157.942 89.7369 158.636 90.8235C159.329 91.9101 159.676 93.3088 159.676 95.0197C159.676 96.6843 159.312 98.0772 158.584 99.1985C157.867 100.32 156.821 101.204 155.445 101.851L160.89 111.908H156.867L151.943 102.441C151.908 102.441 151.879 102.441 151.856 102.441C151.833 102.441 151.804 102.441 151.769 102.441H146.879V111.908H143.412ZM146.879 99.4933H151.249C152.902 99.4933 154.145 99.0945 154.977 98.2968C155.821 97.4992 156.243 96.4068 156.243 95.0197C156.243 93.6094 155.821 92.517 154.977 91.7425C154.145 90.968 152.902 90.5808 151.249 90.5808H146.879V99.4933Z" fill="white"/>
<path d="M119.354 111.908V87.6331H134.162V90.6154H122.649V97.7246H131.804V100.707H122.649V108.926H134.474V111.908H119.354Z" fill="white"/>
<path d="M100.829 111.908V90.6154H93.7543V87.6331H111.198V90.6154H104.123V111.908H100.829Z" fill="white"/>
<path d="M84.7551 105.354H74.3514V102.372H84.7551V105.354ZM79.0677 90.8582H80.0387L72.5828 111.908H69.1149L77.8193 87.6331H81.2872L89.9916 111.908H86.5237L79.0677 90.8582Z" fill="white"/>
<path d="M56.2417 112.394C53.8835 112.394 51.7796 111.879 49.9301 110.851C48.0921 109.81 46.6414 108.348 45.5779 106.464C44.526 104.568 44 102.337 44 99.7707C44 97.2045 44.5317 94.9792 45.5952 93.095C46.6703 91.1992 48.1384 89.7369 49.9995 88.7081C51.8721 87.6678 53.9991 87.1476 56.3804 87.1476C57.6173 87.1476 58.7964 87.2805 59.9176 87.5464C61.0389 87.8123 62.0215 88.1533 62.8653 88.5694L62.5186 91.6212C61.6516 91.205 60.6979 90.8525 59.6575 90.5635C58.6172 90.2745 57.5132 90.13 56.3457 90.13C54.4384 90.13 52.8374 90.5635 51.5427 91.4304C50.248 92.2858 49.2654 93.4418 48.595 94.8983C47.9361 96.3548 47.6066 97.979 47.6066 99.7707C47.6066 101.562 47.9303 103.187 48.5776 104.643C49.2365 106.1 50.2075 107.261 51.4907 108.128C52.7853 108.984 54.3806 109.411 56.2763 109.411C57.4786 109.411 58.5883 109.284 59.6055 109.03C60.6343 108.764 61.6053 108.406 62.5186 107.955L62.8653 111.007C61.9984 111.4 61.0216 111.729 59.935 111.995C58.8484 112.261 57.6173 112.394 56.2417 112.394Z" fill="white"/>
<defs>
<clipPath id="clip0_80_24">
<rect width="493.292" height="68.809" fill="white"/>
</clipPath>
</defs>
</svg>
